<svg xmlns="http://www.w3.org/2000/svg" xmlns:xlink="http://www.w3.org/1999/xlink" id="menu" viewBox="0 0 48 48" fill="#0077ff">
  <path d="M12 6.9863281C9.256343 6.9863281 7 9.2426712 7 11.986328C7 14.729985 9.256343 16.986328 12 16.986328L36 16.986328C38.743657 16.986328 41 14.729985 41 11.986328C41 9.2426712 38.743657 6.9863281 36 6.9863281L12 6.9863281 z M 12 9.9863281L36 9.9863281C37.122343 9.9863281 38 10.863985 38 11.986328C38 13.108671 37.122343 13.986328 36 13.986328L12 13.986328C10.877657 13.986328 10 13.108671 10 11.986328C10 10.863985 10.877657 9.9863281 12 9.9863281 z M 12 18.986328C9.256343 18.986328 7 21.242671 7 23.986328C7 26.729985 9.256343 28.986328 12 28.986328L36 28.986328C38.743657 28.986328 41 26.729985 41 23.986328C41 21.242671 38.743657 18.986328 36 18.986328L12 18.986328 z M 12 21.986328L36 21.986328C37.122343 21.986328 38 22.863985 38 23.986328C38 25.108671 37.122343 25.986328 36 25.986328L12 25.986328C10.877657 25.986328 10 25.108671 10 23.986328C10 22.863985 10.877657 21.986328 12 21.986328 z M 12 30.986328C9.256343 30.986328 7 33.242671 7 35.986328C7 38.729985 9.256343 40.986328 12 40.986328L36 40.986328C38.743657 40.986328 41 38.729985 41 35.986328C41 33.242671 38.743657 30.986328 36 30.986328L12 30.986328 z M 12 33.986328L36 33.986328C37.122343 33.986328 38 34.863985 38 35.986328C38 37.108671 37.122343 37.986328 36 37.986328L12 37.986328C10.877657 37.986328 10 37.108671 10 35.986328C10 34.863985 10.877657 33.986328 12 33.986328 z" fill="#0077ff" />
</svg>